<svg id="visual" viewBox="0 0 900 600" width="900" height="600" xmlns="http://www.w3.org/2000/svg" xmlns:xlink="http://www.w3.org/1999/xlink" version="1.1"><rect x="0" y="0" width="900" height="600" fill="#FFFFFF"></rect><path d="M0 551L11.5 548.2C23 545.3 46 539.7 69 534.5C92 529.3 115 524.7 138.2 511.8C161.3 499 184.7 478 207.8 478.7C231 479.3 254 501.7 277 518.8C300 536 323 548 346 542.7C369 537.3 392 514.7 415.2 509.8C438.3 505 461.7 518 484.8 519.2C508 520.3 531 509.7 554 497.8C577 486 600 473 623 463.7C646 454.3 669 448.7 692.2 459.2C715.3 469.7 738.7 496.3 761.8 496.8C785 497.3 808 471.7 831 473.3C854 475 877 504 888.5 518.5L900 533L900 601L888.5 601C877 601 854 601 831 601C808 601 785 601 761.8 601C738.7 601 715.3 601 692.2 601C669 601 646 601 623 601C600 601 577 601 554 601C531 601 508 601 484.8 601C461.7 601 438.3 601 415.2 601C392 601 369 601 346 601C323 601 300 601 277 601C254 601 231 601 207.8 601C184.7 601 161.3 601 138.2 601C115 601 92 601 69 601C46 601 23 601 11.5 601L0 601Z" fill="#6600FF" stroke-linecap="round" stroke-linejoin="miter"></path></svg>